<svg width="32" height="25" viewBox="0 0 37 30" fill="none" xmlns="http://www.w3.org/2000/svg">
<path d="M33.7169 0H2.59361C1.90574 0 1.24605 0.31607 0.75965 0.87868C0.273254 1.44129 0 2.20435 0 3V27C0 27.7956 0.273254 28.5587 0.75965 29.1213C1.24605 29.6839 1.90574 30 2.59361 30H33.7169C34.4048 30 35.0645 29.6839 35.5509 29.1213C36.0372 28.5587 36.3105 27.7956 36.3105 27V3C36.3105 2.20435 36.0372 1.44129 35.5509 0.87868C35.0645 0.31607 34.4048 0 33.7169 0V0ZM30.8639 3L18.1553 13.17L5.44657 3H30.8639ZM2.59361 27V4.365L17.4161 16.23C17.6332 16.4042 17.891 16.4975 18.1553 16.4975C18.4195 16.4975 18.6773 16.4042 18.8944 16.23L33.7169 4.365V27H2.59361Z" fill="url(#paint0_linear)"/>
<defs>
<linearGradient id="paint0_linear" x1="1.35267e-07" y1="15" x2="36.3105" y2="15" gradientUnits="userSpaceOnUse">
<stop stop-color="#19f2be"/>
<stop offset="1" stop-color="#19f2be"/>
</linearGradient>
</defs>
</svg>
