<svg width="275" height="103" viewBox="0 0 275 103" fill="none" xmlns="http://www.w3.org/2000/svg">
<path d="M103.149 71.5176C103.149 72.7025 103.11 73.9386 103.03 75.2261C102.95 76.5021 102.796 77.818 102.568 79.1738H98.4326C98.5352 78.7865 98.632 78.3649 98.7231 77.9092C98.7915 77.5218 98.8542 77.0718 98.9111 76.5591C98.9795 76.035 99.0137 75.4824 99.0137 74.9014C98.0111 74.9242 97.1794 75.021 96.5186 75.1919C95.8691 75.3514 95.328 75.5451 94.895 75.7729C94.4621 75.9894 94.1089 76.2116 93.8354 76.4395C93.562 76.6673 93.3171 76.8496 93.1006 76.9863V91H88.7256V76.8838C88.68 76.5192 88.5718 76.2116 88.4009 75.9609C88.2414 75.7103 88.0705 75.5052 87.8882 75.3457C87.6831 75.152 87.4495 74.9925 87.1875 74.8672L88.999 71.5176C89.4206 71.6657 89.8364 71.8651 90.2466 72.1157C90.5998 72.3322 90.9701 72.6113 91.3574 72.9531C91.7562 73.2835 92.1094 73.6937 92.417 74.1836C92.998 73.7848 93.5335 73.4487 94.0234 73.1753C94.5133 72.8905 94.9862 72.6512 95.4419 72.4575C95.909 72.2638 96.3875 72.1157 96.8774 72.0132C97.3787 71.8993 97.9256 71.8081 98.5181 71.7397C99.1219 71.6714 99.7941 71.6258 100.535 71.603C101.287 71.5688 102.158 71.5404 103.149 71.5176ZM115.718 85.2578C116.128 85.2578 116.532 85.292 116.931 85.3604C117.341 85.4287 117.706 85.5312 118.025 85.668C118.344 85.8047 118.6 85.9813 118.794 86.1978C118.999 86.4142 119.102 86.6706 119.102 86.9668V89.4619C119.102 89.7354 118.999 89.9689 118.794 90.1626C118.6 90.3563 118.344 90.5158 118.025 90.6411C117.706 90.7664 117.341 90.8576 116.931 90.9146C116.532 90.9715 116.128 91 115.718 91C115.308 91 114.903 90.9715 114.504 90.9146C114.106 90.8576 113.747 90.7664 113.428 90.6411C113.109 90.5158 112.852 90.3563 112.659 90.1626C112.465 89.9689 112.368 89.7354 112.368 89.4619V86.9668C112.368 86.6706 112.465 86.4142 112.659 86.1978C112.852 85.9813 113.109 85.8047 113.428 85.668C113.747 85.5312 114.106 85.4287 114.504 85.3604C114.903 85.292 115.308 85.2578 115.718 85.2578ZM137.72 65.0234C139.486 65.0234 141.343 65.0861 143.291 65.2114C145.239 65.3368 147.29 65.5817 149.443 65.9463V70.2871C148.68 70.0706 147.808 69.8656 146.829 69.6719C145.986 69.5124 144.972 69.3586 143.787 69.2104C142.602 69.0623 141.263 68.9655 139.771 68.9199V91.0342H135.703V68.9199C134.211 68.9655 132.872 69.0623 131.687 69.2104C130.502 69.3586 129.488 69.5124 128.645 69.6719C127.665 69.8656 126.794 70.0706 126.03 70.2871V65.9463C128.161 65.5817 130.212 65.3368 132.183 65.2114C134.154 65.0861 135.999 65.0234 137.72 65.0234ZM168.242 71.5176C168.242 72.7025 168.202 73.9386 168.123 75.2261C168.043 76.5021 167.889 77.818 167.661 79.1738H163.525C163.628 78.7865 163.725 78.3649 163.816 77.9092C163.884 77.5218 163.947 77.0718 164.004 76.5591C164.072 76.035 164.106 75.4824 164.106 74.9014C163.104 74.9242 162.272 75.021 161.611 75.1919C160.962 75.3514 160.421 75.5451 159.988 75.7729C159.555 75.9894 159.202 76.2116 158.928 76.4395C158.655 76.6673 158.41 76.8496 158.193 76.9863V91H153.818V76.8838C153.773 76.5192 153.665 76.2116 153.494 75.9609C153.334 75.7103 153.163 75.5052 152.981 75.3457C152.776 75.152 152.542 74.9925 152.28 74.8672L154.092 71.5176C154.513 71.6657 154.929 71.8651 155.339 72.1157C155.693 72.3322 156.063 72.6113 156.45 72.9531C156.849 73.2835 157.202 73.6937 157.51 74.1836C158.091 73.7848 158.626 73.4487 159.116 73.1753C159.606 72.8905 160.079 72.6512 160.535 72.4575C161.002 72.2638 161.48 72.1157 161.97 72.0132C162.472 71.8993 163.018 71.8081 163.611 71.7397C164.215 71.6714 164.887 71.6258 165.627 71.603C166.379 71.5688 167.251 71.5404 168.242 71.5176ZM191.929 84.0273C191.644 83.7767 191.291 83.5317 190.869 83.2925C190.448 83.0532 189.929 82.8424 189.314 82.6602C188.699 82.4665 187.964 82.3127 187.109 82.1987C186.266 82.0734 185.275 82.0107 184.136 82.0107C183.122 82.0107 182.159 82.0335 181.248 82.0791C180.347 82.1133 179.556 82.2272 178.872 82.4209C178.188 82.6032 177.647 82.8994 177.249 83.3096C176.85 83.7197 176.65 84.2894 176.65 85.0186V87.2061C177.653 87.3656 178.758 87.4966 179.966 87.5991C181.174 87.7017 182.518 87.7529 183.999 87.7529C185.184 87.7529 186.443 87.7131 187.776 87.6333C189.12 87.5422 190.505 87.3656 191.929 87.1035V84.0273ZM184.238 71.5176C184.808 71.5176 185.497 71.5461 186.306 71.603C187.115 71.66 187.958 71.7625 188.835 71.9106C189.713 72.0474 190.579 72.241 191.433 72.4917C192.299 72.731 193.074 73.05 193.757 73.4487C194.452 73.8361 195.011 74.3032 195.432 74.8501C195.854 75.397 196.064 76.0407 196.064 76.7812V90.0088C195.107 90.2025 194.025 90.3677 192.817 90.5044C191.781 90.6297 190.544 90.7437 189.109 90.8462C187.673 90.9487 186.073 91 184.307 91C182.552 91 180.684 90.9259 178.701 90.7778C176.73 90.6297 174.668 90.3734 172.515 90.0088V83.8564C172.515 83.1956 172.668 82.6203 172.976 82.1304C173.295 81.6291 173.728 81.2018 174.275 80.8486C174.822 80.4954 175.465 80.2049 176.206 79.9771C176.947 79.7492 177.744 79.5669 178.599 79.4302C179.453 79.2935 180.342 79.2023 181.265 79.1567C182.188 79.0998 183.11 79.0713 184.033 79.0713C185.435 79.0713 186.625 79.1624 187.605 79.3447C188.596 79.5156 189.417 79.7036 190.066 79.9087C190.818 80.1593 191.439 80.4385 191.929 80.7461V77.9775C191.929 77.5104 191.815 77.1117 191.587 76.7812C191.359 76.4395 191.051 76.1546 190.664 75.9268C190.277 75.6875 189.832 75.4995 189.331 75.3628C188.83 75.2147 188.306 75.1007 187.759 75.021C187.212 74.9412 186.654 74.89 186.084 74.8672C185.526 74.8444 185.002 74.833 184.512 74.833C183.999 74.833 183.452 74.8501 182.871 74.8843C182.29 74.9071 181.709 74.9583 181.128 75.0381C180.558 75.1178 180.006 75.2318 179.47 75.3799C178.946 75.5166 178.479 75.7046 178.069 75.9438C177.659 76.1831 177.328 76.4736 177.078 76.8154C176.838 77.1458 176.719 77.5446 176.719 78.0117L172.48 76.918C172.48 76.1546 172.668 75.4938 173.044 74.9355C173.42 74.3659 173.916 73.8817 174.531 73.4829C175.158 73.0841 175.876 72.7594 176.685 72.5088C177.493 72.2467 178.331 72.0474 179.197 71.9106C180.074 71.7625 180.946 71.66 181.812 71.603C182.677 71.5461 183.486 71.5176 184.238 71.5176ZM212.095 71.5176C213.097 71.5176 214.146 71.6315 215.239 71.8594C216.344 72.0872 217.415 72.3835 218.452 72.748V64.9893H222.93V89.667C222.326 89.8493 221.602 90.0202 220.759 90.1797C219.928 90.3392 219.033 90.4816 218.076 90.6069C217.119 90.7209 216.122 90.8177 215.085 90.8975C214.06 90.9658 213.063 91 212.095 91C210.34 91 208.774 90.8804 207.395 90.6411C206.016 90.3905 204.849 90.0088 203.892 89.4961C202.935 88.9834 202.205 88.334 201.704 87.5479C201.203 86.7617 200.952 85.8275 200.952 84.7451V77.7725C200.952 76.6901 201.203 75.7559 201.704 74.9697C202.205 74.1836 202.935 73.5342 203.892 73.0215C204.849 72.5088 206.016 72.1328 207.395 71.8936C208.774 71.6429 210.34 71.5176 212.095 71.5176ZM213.325 87.8213C213.781 87.8213 214.242 87.7985 214.709 87.7529C215.188 87.7074 215.649 87.6447 216.094 87.5649C216.549 87.4852 216.977 87.394 217.375 87.2915C217.786 87.189 218.145 87.0807 218.452 86.9668V76.2344C217.666 75.8584 216.857 75.5508 216.025 75.3115C215.205 75.0609 214.305 74.9355 213.325 74.9355C212.619 74.9355 211.93 74.9526 211.257 74.9868C210.597 75.0096 209.976 75.0723 209.395 75.1748C208.813 75.266 208.278 75.4027 207.788 75.585C207.298 75.7559 206.877 75.9894 206.523 76.2856C206.182 76.5819 205.914 76.9465 205.72 77.3794C205.527 77.8123 205.43 78.3307 205.43 78.9346V83.959C205.43 84.8818 205.64 85.6053 206.062 86.1294C206.495 86.6421 207.07 87.0238 207.788 87.2744C208.506 87.5251 209.343 87.6789 210.3 87.7358C211.257 87.7928 212.266 87.8213 213.325 87.8213ZM240.259 71.5176C240.84 71.5176 241.541 71.5461 242.361 71.603C243.181 71.66 244.03 71.7625 244.907 71.9106C245.796 72.0474 246.673 72.2467 247.539 72.5088C248.405 72.7594 249.18 73.0841 249.863 73.4829C250.558 73.8817 251.117 74.3659 251.538 74.9355C251.971 75.4938 252.188 76.1546 252.188 76.918V82.6943H232.603V87.0693C233.981 87.263 235.308 87.3997 236.584 87.4795C237.861 87.5479 239.085 87.582 240.259 87.582C242.048 87.582 243.665 87.5137 245.112 87.377C246.571 87.2402 247.83 87.0864 248.889 86.9155C250.108 86.7218 251.208 86.4997 252.188 86.249V90.043C250.023 90.3848 247.932 90.6297 245.916 90.7778C243.91 90.9259 242.025 91 240.259 91C238.481 91 236.869 90.9544 235.422 90.8633C233.975 90.7607 232.734 90.6468 231.697 90.5215C230.489 90.3848 229.401 90.2253 228.433 90.043V76.918C228.433 76.1546 228.621 75.4938 228.997 74.9355C229.373 74.3659 229.874 73.8817 230.5 73.4829C231.127 73.0841 231.845 72.7594 232.654 72.5088C233.474 72.2467 234.323 72.0474 235.2 71.9106C236.077 71.7625 236.949 71.66 237.815 71.603C238.692 71.5461 239.507 71.5176 240.259 71.5176ZM232.603 79.96H247.949V77.9775C247.949 77.5104 247.835 77.1117 247.607 76.7812C247.38 76.4395 247.072 76.1546 246.685 75.9268C246.309 75.6989 245.864 75.5166 245.352 75.3799C244.85 75.2318 244.326 75.1235 243.779 75.0552C243.232 74.9754 242.68 74.9242 242.122 74.9014C241.575 74.8786 241.056 74.8672 240.566 74.8672C240.054 74.8672 239.501 74.8786 238.909 74.9014C238.328 74.9242 237.741 74.9754 237.148 75.0552C236.556 75.1349 235.986 75.2489 235.439 75.397C234.893 75.5337 234.408 75.7217 233.987 75.9609C233.565 76.1888 233.229 76.4736 232.979 76.8154C232.728 77.1458 232.603 77.5446 232.603 78.0117V79.96ZM272.593 71.5176C272.593 72.7025 272.553 73.9386 272.473 75.2261C272.393 76.5021 272.24 77.818 272.012 79.1738H267.876C267.979 78.7865 268.075 78.3649 268.167 77.9092C268.235 77.5218 268.298 77.0718 268.354 76.5591C268.423 76.035 268.457 75.4824 268.457 74.9014C267.454 74.9242 266.623 75.021 265.962 75.1919C265.312 75.3514 264.771 75.5451 264.338 75.7729C263.905 75.9894 263.552 76.2116 263.279 76.4395C263.005 76.6673 262.76 76.8496 262.544 76.9863V91H258.169V76.8838C258.123 76.5192 258.015 76.2116 257.844 75.9609C257.685 75.7103 257.514 75.5052 257.332 75.3457C257.126 75.152 256.893 74.9925 256.631 74.8672L258.442 71.5176C258.864 71.6657 259.28 71.8651 259.69 72.1157C260.043 72.3322 260.413 72.6113 260.801 72.9531C261.2 73.2835 261.553 73.6937 261.86 74.1836C262.441 73.7848 262.977 73.4487 263.467 73.1753C263.957 72.8905 264.43 72.6512 264.885 72.4575C265.352 72.2638 265.831 72.1157 266.321 72.0132C266.822 71.8993 267.369 71.8081 267.961 71.7397C268.565 71.6714 269.237 71.6258 269.978 71.603C270.73 71.5688 271.602 71.5404 272.593 71.5176Z" fill="#19F2BE"/>
<path d="M103.149 71.5176H103.649V71.006L103.138 71.0177L103.149 71.5176ZM103.03 75.2261L103.529 75.2573L103.529 75.257L103.03 75.2261ZM102.568 79.1738V79.6738H102.991L103.061 79.2567L102.568 79.1738ZM98.4326 79.1738L97.9493 79.0459L97.783 79.6738H98.4326V79.1738ZM98.7231 77.9092L99.2136 78.0073L99.2155 77.9961L98.7231 77.9092ZM98.9111 76.5591L98.4152 76.4944L98.4142 76.5039L98.9111 76.5591ZM99.0137 74.9014H99.5137V74.3899L99.0023 74.4015L99.0137 74.9014ZM96.5186 75.1919L96.6378 75.6775L96.6437 75.676L96.5186 75.1919ZM94.895 75.7729L95.1187 76.2203L95.1279 76.2154L94.895 75.7729ZM93.1006 76.9863L92.8336 76.5636L92.6006 76.7107V76.9863H93.1006ZM93.1006 91V91.5H93.6006V91H93.1006ZM88.7256 91H88.2256V91.5H88.7256V91ZM88.7256 76.8838H89.2256V76.8527L89.2217 76.8218L88.7256 76.8838ZM88.4009 75.9609L87.979 76.2294L87.9833 76.2361L87.9878 76.2426L88.4009 75.9609ZM87.8882 75.3457L87.5449 75.7092L87.5518 75.7157L87.5589 75.722L87.8882 75.3457ZM87.1875 74.8672L86.7477 74.6293L86.4977 75.0915L86.9718 75.3183L87.1875 74.8672ZM88.999 71.5176L89.1648 71.0458L88.7622 70.9044L88.5592 71.2797L88.999 71.5176ZM90.2466 72.1157L90.5079 71.6894L90.5073 71.6891L90.2466 72.1157ZM91.3574 72.9531L91.0266 73.328L91.0324 73.3332L91.0384 73.3381L91.3574 72.9531ZM92.417 74.1836L91.9935 74.4495L92.2705 74.8905L92.6999 74.5958L92.417 74.1836ZM94.0234 73.1753L94.2672 73.612L94.2747 73.6075L94.0234 73.1753ZM95.4419 72.4575L95.2504 71.9956L95.2463 71.9974L95.4419 72.4575ZM96.8774 72.0132L96.9799 72.5027L96.9883 72.5007L96.8774 72.0132ZM98.5181 71.7397L98.4618 71.2429L98.4608 71.243L98.5181 71.7397ZM100.535 71.603L100.55 72.1028L100.557 72.1025L100.535 71.603ZM102.649 71.5176C102.649 72.6913 102.61 73.9171 102.531 75.1952L103.529 75.257C103.609 73.9602 103.649 72.7136 103.649 71.5176H102.649ZM102.531 75.1949C102.452 76.4524 102.3 77.751 102.075 79.091L103.061 79.2567C103.292 77.8851 103.448 76.5519 103.529 75.2573L102.531 75.1949ZM102.568 78.6738H98.4326V79.6738H102.568V78.6738ZM98.916 79.3018C99.0215 78.9031 99.1206 78.4715 99.2134 78.0072L98.2329 77.8111C98.1434 78.2584 98.0488 78.6698 97.9493 79.0459L98.916 79.3018ZM99.2155 77.9961C99.2862 77.5956 99.3503 77.1345 99.4081 76.6143L98.4142 76.5039C98.3581 77.009 98.2968 77.4481 98.2308 77.8223L99.2155 77.9961ZM99.4069 76.6238C99.4783 76.0762 99.5137 75.5019 99.5137 74.9014H98.5137C98.5137 75.4629 98.4806 75.9938 98.4153 76.4944L99.4069 76.6238ZM99.0023 74.4015C97.9774 74.4248 97.1043 74.524 96.3934 74.7078L96.6437 75.676C97.2544 75.518 98.0447 75.4235 99.025 75.4012L99.0023 74.4015ZM96.3993 74.7063C95.7237 74.8723 95.1415 75.0782 94.6621 75.3305L95.1279 76.2154C95.5145 76.012 96.0146 75.8305 96.6378 75.6775L96.3993 74.7063ZM94.6714 75.3257C94.2154 75.5537 93.8268 75.7958 93.5154 76.0553L94.1555 76.8236C94.3909 76.6274 94.7087 76.4251 95.1186 76.2202L94.6714 75.3257ZM93.5154 76.0553C93.2528 76.2741 93.026 76.4421 92.8336 76.5636L93.3676 77.4091C93.6082 77.2571 93.8712 77.0605 94.1555 76.8236L93.5154 76.0553ZM92.6006 76.9863V91H93.6006V76.9863H92.6006ZM93.1006 90.5H88.7256V91.5H93.1006V90.5ZM89.2256 91V76.8838H88.2256V91H89.2256ZM89.2217 76.8218C89.1684 76.3949 89.0381 76.008 88.814 75.6793L87.9878 76.2426C88.1055 76.4152 88.1917 76.6435 88.2294 76.9458L89.2217 76.8218ZM88.8227 75.6925C88.6432 75.4104 88.4426 75.1664 88.2174 74.9694L87.5589 75.722C87.6984 75.844 87.8396 76.0102 87.979 76.2294L88.8227 75.6925ZM88.2315 74.9822C87.9876 74.7518 87.7107 74.5632 87.4032 74.4161L86.9718 75.3183C87.1884 75.4219 87.3786 75.5522 87.5449 75.7092L88.2315 74.9822ZM87.6273 75.105L89.4388 71.7554L88.5592 71.2797L86.7477 74.6293L87.6273 75.105ZM88.8333 71.9893C89.2193 72.1249 89.6034 72.3087 89.9859 72.5424L90.5073 71.6891C90.0694 71.4215 89.6219 71.2065 89.1648 71.0458L88.8333 71.9893ZM89.9853 72.542C90.3087 72.7403 90.6558 73.0009 91.0266 73.328L91.6882 72.5782C91.2843 72.2218 90.8908 71.9241 90.5079 71.6894L89.9853 72.542ZM91.0384 73.3381C91.3918 73.6309 91.7109 73.9994 91.9935 74.4495L92.8404 73.9177C92.5078 73.388 92.1206 72.9361 91.6764 72.5681L91.0384 73.3381ZM92.6999 74.5958C93.2713 74.2037 93.7935 73.8762 94.2671 73.6119L93.7798 72.7387C93.2735 73.0212 92.7248 73.366 92.1341 73.7713L92.6999 74.5958ZM94.2747 73.6075C94.7492 73.3317 95.2034 73.1022 95.6375 72.9177L95.2463 71.9974C94.769 72.2002 94.2775 72.4492 93.7721 72.743L94.2747 73.6075ZM95.6334 72.9194C96.0721 72.7375 96.5208 72.5987 96.9799 72.5026L96.775 71.5238C96.2543 71.6328 95.746 71.7902 95.2504 71.9956L95.6334 72.9194ZM96.9883 72.5007C97.4694 72.3914 97.9981 72.3031 98.5754 72.2365L98.4608 71.243C97.8531 71.3132 97.2881 71.4071 96.7666 71.5256L96.9883 72.5007ZM98.5743 72.2366C99.162 72.17 99.8203 72.1252 100.55 72.1028L100.519 71.1033C99.7679 71.1264 99.0818 71.1727 98.4618 71.2429L98.5743 72.2366ZM100.557 72.1025C101.305 72.0685 102.172 72.0402 103.161 72.0174L103.138 71.0177C102.144 71.0406 101.269 71.0692 100.512 71.1035L100.557 72.1025ZM116.931 85.3604L116.847 85.8532L116.849 85.8535L116.931 85.3604ZM118.025 85.668L118.222 85.2084L118.025 85.668ZM118.794 86.1978L118.421 86.5312L118.426 86.5365L118.431 86.5416L118.794 86.1978ZM118.794 90.1626L118.451 89.7991L118.445 89.804L118.44 89.809L118.794 90.1626ZM118.025 90.6411L118.208 91.1065L118.025 90.6411ZM116.931 90.9146L116.862 90.4193L116.86 90.4196L116.931 90.9146ZM113.428 90.6411L113.245 91.1065L113.428 90.6411ZM112.659 90.1626L112.305 90.5162L112.659 90.1626ZM113.428 85.668L113.231 85.2084L113.428 85.668ZM115.718 85.7578C116.1 85.7578 116.476 85.7897 116.847 85.8532L117.016 84.8675C116.589 84.7943 116.156 84.7578 115.718 84.7578V85.7578ZM116.849 85.8535C117.227 85.9166 117.552 86.0093 117.828 86.1275L118.222 85.2084C117.86 85.0532 117.455 84.9408 117.013 84.8672L116.849 85.8535ZM117.828 86.1275C118.093 86.241 118.285 86.3786 118.421 86.5312L119.167 85.8644C118.916 85.584 118.595 85.3683 118.222 85.2084L117.828 86.1275ZM118.431 86.5416C118.549 86.6659 118.602 86.7994 118.602 86.9668H119.602C119.602 86.5417 119.449 86.1625 119.157 85.8539L118.431 86.5416ZM118.602 86.9668V89.4619H119.602V86.9668H118.602ZM118.602 89.4619C118.602 89.593 118.559 89.6965 118.451 89.7991L119.137 90.5261C119.439 90.2413 119.602 89.8777 119.602 89.4619H118.602ZM118.44 89.809C118.306 89.9435 118.113 90.0694 117.842 90.1757L118.208 91.1065C118.575 90.9621 118.895 90.769 119.147 90.5162L118.44 89.809ZM117.842 90.1757C117.566 90.284 117.241 90.3667 116.862 90.4193L117 91.4098C117.441 91.3485 117.845 91.2489 118.208 91.1065L117.842 90.1757ZM116.86 90.4196C116.486 90.4731 116.105 90.5 115.718 90.5V91.5C116.151 91.5 116.579 91.4699 117.002 91.4095L116.86 90.4196ZM115.718 90.5C115.331 90.5 114.95 90.4731 114.575 90.4196L114.434 91.4095C114.856 91.4699 115.284 91.5 115.718 91.5V90.5ZM114.575 90.4196C114.208 90.3672 113.888 90.2847 113.611 90.1757L113.245 91.1065C113.606 91.2482 114.003 91.348 114.434 91.4095L114.575 90.4196ZM113.611 90.1757C113.34 90.0694 113.147 89.9435 113.012 89.809L112.305 90.5162C112.558 90.769 112.877 90.9621 113.245 91.1065L113.611 90.1757ZM113.012 89.809C112.912 89.7089 112.868 89.6025 112.868 89.4619H111.868C111.868 89.8682 112.018 90.2289 112.305 90.5162L113.012 89.809ZM112.868 89.4619V86.9668H111.868V89.4619H112.868ZM112.868 86.9668C112.868 86.7909 112.921 86.654 113.031 86.5312L112.286 85.8644C112.009 86.1745 111.868 86.5502 111.868 86.9668H112.868ZM113.031 86.5312C113.168 86.3786 113.36 86.241 113.625 86.1275L113.231 85.2084C112.858 85.3683 112.537 85.584 112.286 85.8644L113.031 86.5312ZM113.625 86.1275C113.902 86.0086 114.223 85.916 114.589 85.8532L114.42 84.8675C113.989 84.9415 113.591 85.0539 113.231 85.2084L113.625 86.1275ZM114.589 85.8532C114.959 85.7897 115.336 85.7578 115.718 85.7578V84.7578C115.28 84.7578 114.847 84.7943 114.42 84.8675L114.589 85.8532ZM149.443 65.9463H149.943V65.5238L149.527 65.4533L149.443 65.9463ZM149.443 70.2871L149.307 70.7681L149.943 70.9486V70.2871H149.443ZM146.829 69.6719L146.926 69.1814L146.922 69.1806L146.829 69.6719ZM139.771 68.9199L139.786 68.4202L139.271 68.4044V68.9199H139.771ZM139.771 91.0342V91.5342H140.271V91.0342H139.771ZM135.703 91.0342H135.203V91.5342H135.703V91.0342ZM135.703 68.9199H136.203V68.4044L135.688 68.4202L135.703 68.9199ZM128.645 69.6719L128.552 69.1806L128.548 69.1814L128.645 69.6719ZM126.03 70.2871H125.53V70.9486L126.167 70.7681L126.03 70.2871ZM126.03 65.9463L125.946 65.4535L125.53 65.5246V65.9463H126.03ZM137.72 65.5234C139.474 65.5234 141.32 65.5857 143.259 65.7104L143.323 64.7125C141.365 64.5865 139.497 64.5234 137.72 64.5234V65.5234ZM143.259 65.7104C145.188 65.8345 147.222 66.0772 149.36 66.4393L149.527 65.4533C147.358 65.0862 145.29 64.839 143.323 64.7125L143.259 65.7104ZM148.943 65.9463V70.2871H149.943V65.9463H148.943ZM149.58 69.8061C148.801 69.5851 147.915 69.377 146.926 69.1814L146.732 70.1624C147.701 70.3541 148.559 70.5562 149.307 70.7681L149.58 69.8061ZM146.922 69.1806C146.065 69.0186 145.04 68.8633 143.849 68.7143L143.725 69.7066C144.903 69.8539 145.906 70.0062 146.736 70.1632L146.922 69.1806ZM143.849 68.7143C142.645 68.5639 141.29 68.4661 139.786 68.4202L139.755 69.4197C141.236 69.4649 142.558 69.5608 143.725 69.7066L143.849 68.7143ZM139.271 68.9199V91.0342H140.271V68.9199H139.271ZM139.771 90.5342H135.703V91.5342H139.771V90.5342ZM136.203 91.0342V68.9199H135.203V91.0342H136.203ZM135.688 68.4202C134.183 68.4661 132.829 68.5639 131.625 68.7143L131.749 69.7066C132.915 69.5608 134.238 69.4649 135.718 69.4197L135.688 68.4202ZM131.625 68.7143C130.433 68.8633 129.409 69.0186 128.552 69.1806L128.738 70.1632C129.568 70.0062 130.571 69.8539 131.749 69.7066L131.625 68.7143ZM128.548 69.1814C127.558 69.377 126.673 69.5851 125.894 69.8061L126.167 70.7681C126.914 70.5562 127.772 70.3541 128.742 70.1624L128.548 69.1814ZM126.53 70.2871V65.9463H125.53V70.2871H126.53ZM126.115 66.4391C128.229 66.0772 130.263 65.8345 132.214 65.7104L132.151 64.7124C130.161 64.839 128.092 65.0862 125.946 65.4535L126.115 66.4391ZM132.214 65.7104C134.176 65.5857 136.011 65.5234 137.72 65.5234V64.5234C135.987 64.5234 134.131 64.5865 132.151 64.7124L132.214 65.7104ZM168.242 71.5176H168.742V71.006L168.231 71.0177L168.242 71.5176ZM168.123 75.2261L168.622 75.2573L168.622 75.257L168.123 75.2261ZM167.661 79.1738V79.6738H168.084L168.154 79.2567L167.661 79.1738ZM163.525 79.1738L163.042 79.0459L162.876 79.6738H163.525V79.1738ZM163.816 77.9092L164.306 78.0073L164.308 77.9961L163.816 77.9092ZM164.004 76.5591L163.508 76.4944L163.507 76.5039L164.004 76.5591ZM164.106 74.9014H164.606V74.3899L164.095 74.4015L164.106 74.9014ZM161.611 75.1919L161.731 75.6775L161.737 75.676L161.611 75.1919ZM159.988 75.7729L160.211 76.2203L160.221 76.2154L159.988 75.7729ZM158.193 76.9863L157.926 76.5636L157.693 76.7107V76.9863H158.193ZM158.193 91V91.5H158.693V91H158.193ZM153.818 91H153.318V91.5H153.818V91ZM153.818 76.8838H154.318V76.8527L154.314 76.8218L153.818 76.8838ZM153.494 75.9609L153.072 76.2294L153.076 76.2361L153.081 76.2426L153.494 75.9609ZM152.981 75.3457L152.638 75.7092L152.645 75.7157L152.652 75.722L152.981 75.3457ZM152.28 74.8672L151.84 74.6293L151.59 75.0915L152.065 75.3183L152.28 74.8672ZM154.092 71.5176L154.258 71.0458L153.855 70.9044L153.652 71.2797L154.092 71.5176ZM155.339 72.1157L155.601 71.6894L155.6 71.6891L155.339 72.1157ZM156.45 72.9531L156.119 73.328L156.125 73.3332L156.131 73.3381L156.45 72.9531ZM157.51 74.1836L157.086 74.4495L157.363 74.8905L157.793 74.5958L157.51 74.1836ZM159.116 73.1753L159.36 73.612L159.368 73.6075L159.116 73.1753ZM160.535 72.4575L160.343 71.9956L160.339 71.9974L160.535 72.4575ZM161.97 72.0132L162.073 72.5027L162.081 72.5007L161.97 72.0132ZM163.611 71.7397L163.555 71.2429L163.554 71.243L163.611 71.7397ZM165.627 71.603L165.643 72.1028L165.65 72.1025L165.627 71.603ZM167.742 71.5176C167.742 72.6913 167.703 73.9171 167.624 75.1952L168.622 75.257C168.702 73.9602 168.742 72.7136 168.742 71.5176H167.742ZM167.624 75.1949C167.545 76.4524 167.393 77.751 167.168 79.091L168.154 79.2567C168.385 77.8851 168.541 76.5519 168.622 75.2573L167.624 75.1949ZM167.661 78.6738H163.525V79.6738H167.661V78.6738ZM164.009 79.3018C164.114 78.9031 164.213 78.4715 164.306 78.0072L163.326 77.8111C163.236 78.2584 163.142 78.6698 163.042 79.0459L164.009 79.3018ZM164.308 77.9961C164.379 77.5956 164.443 77.1345 164.501 76.6143L163.507 76.5039C163.451 77.009 163.39 77.4481 163.324 77.8223L164.308 77.9961ZM164.5 76.6238C164.571 76.0762 164.606 75.5019 164.606 74.9014H163.606C163.606 75.4629 163.573 75.9938 163.508 76.4944L164.5 76.6238ZM164.095 74.4015C163.07 74.4248 162.197 74.524 161.486 74.7078L161.737 75.676C162.347 75.518 163.137 75.4235 164.118 75.4012L164.095 74.4015ZM161.492 74.7063C160.817 74.8723 160.234 75.0782 159.755 75.3305L160.221 76.2154C160.607 76.012 161.107 75.8305 161.731 75.6775L161.492 74.7063ZM159.764 75.3257C159.308 75.5537 158.92 75.7958 158.608 76.0553L159.248 76.8236C159.484 76.6274 159.802 76.4251 160.211 76.2202L159.764 75.3257ZM158.608 76.0553C158.346 76.2741 158.119 76.4421 157.926 76.5636L158.46 77.4091C158.701 77.2571 158.964 77.0605 159.248 76.8236L158.608 76.0553ZM157.693 76.9863V91H158.693V76.9863H157.693ZM158.193 90.5H153.818V91.5H158.193V90.5ZM154.318 91V76.8838H153.318V91H154.318ZM154.314 76.8218C154.261 76.3949 154.131 76.008 153.907 75.6793L153.081 76.2426C153.198 76.4152 153.284 76.6435 153.322 76.9458L154.314 76.8218ZM153.915 75.6925C153.736 75.4104 153.535 75.1664 153.31 74.9694L152.652 75.722C152.791 75.844 152.932 76.0102 153.072 76.2294L153.915 75.6925ZM153.324 74.9822C153.08 74.7518 152.803 74.5632 152.496 74.4161L152.065 75.3183C152.281 75.4219 152.471 75.5522 152.638 75.7092L153.324 74.9822ZM152.72 75.105L154.532 71.7554L153.652 71.2797L151.84 74.6293L152.72 75.105ZM153.926 71.9893C154.312 72.1249 154.696 72.3087 155.079 72.5424L155.6 71.6891C155.162 71.4215 154.715 71.2065 154.258 71.0458L153.926 71.9893ZM155.078 72.542C155.402 72.7403 155.749 73.0009 156.119 73.328L156.781 72.5782C156.377 72.2218 155.984 71.9241 155.601 71.6894L155.078 72.542ZM156.131 73.3381C156.485 73.6309 156.804 73.9994 157.086 74.4495L157.933 73.9177C157.601 73.388 157.213 72.9361 156.769 72.5681L156.131 73.3381ZM157.793 74.5958C158.364 74.2037 158.886 73.8762 159.36 73.6119L158.873 72.7387C158.366 73.0212 157.818 73.366 157.227 73.7713L157.793 74.5958ZM159.368 73.6075C159.842 73.3317 160.296 73.1022 160.73 72.9177L160.339 71.9974C159.862 72.2002 159.37 72.4492 158.865 72.743L159.368 73.6075ZM160.726 72.9194C161.165 72.7375 161.614 72.5987 162.073 72.5026L161.868 71.5238C161.347 71.6328 160.839 71.7902 160.343 71.9956L160.726 72.9194ZM162.081 72.5007C162.562 72.3914 163.091 72.3031 163.668 72.2365L163.554 71.243C162.946 71.3132 162.381 71.4071 161.859 71.5256L162.081 72.5007ZM163.667 72.2366C164.255 72.17 164.913 72.1252 165.643 72.1028L165.612 71.1033C164.861 71.1264 164.175 71.1727 163.555 71.2429L163.667 72.2366ZM165.65 72.1025C166.397 72.0685 167.265 72.0402 168.254 72.0174L168.231 71.0177C167.237 71.0406 166.361 71.0692 165.605 71.1035L165.65 72.1025ZM191.929 84.0273H192.429V83.8013L192.259 83.652L191.929 84.0273ZM189.314 82.6602L189.164 83.1371L189.172 83.1396L189.314 82.6602ZM187.109 82.1987L187.036 82.6934L187.043 82.6943L187.109 82.1987ZM181.248 82.0791L181.267 82.5788L181.273 82.5785L181.248 82.0791ZM178.872 82.4209L179.001 82.9041L179.008 82.902L178.872 82.4209ZM176.65 87.2061H176.15V87.6328L176.572 87.6998L176.65 87.2061ZM187.776 87.6333L187.806 88.1324L187.81 88.1322L187.776 87.6333ZM191.929 87.1035L192.019 87.5953L192.429 87.5199V87.1035H191.929ZM186.306 71.603L186.271 72.1018L186.306 71.603ZM188.835 71.9106L188.752 72.4037L188.758 72.4047L188.835 71.9106ZM191.433 72.4917L191.292 72.9715L191.3 72.9736L191.433 72.4917ZM193.757 73.4487L193.505 73.8807L193.514 73.8855L193.757 73.4487ZM196.064 90.0088L196.164 90.4989L196.564 90.4177V90.0088H196.064ZM192.817 90.5044L192.761 90.0076L192.757 90.008L192.817 90.5044ZM178.701 90.7778L178.664 91.2764L178.664 91.2764L178.701 90.7778ZM172.515 90.0088H172.015V90.4312L172.431 90.5018L172.515 90.0088ZM172.976 82.1304L172.554 81.8619L172.553 81.8645L172.976 82.1304ZM181.265 79.1567L181.289 79.6562L181.295 79.6558L181.265 79.1567ZM187.605 79.3447L187.514 79.8363L187.52 79.8375L187.605 79.3447ZM190.066 79.9087L190.224 79.4343L190.216 79.4319L190.066 79.9087ZM191.929 80.7461L191.663 81.1695L192.429 81.6504V80.7461H191.929ZM191.587 76.7812L191.171 77.0586L191.175 77.0651L191.587 76.7812ZM190.664 75.9268L190.401 76.3523L190.411 76.3577L190.664 75.9268ZM189.331 75.3628L189.189 75.8424L189.199 75.8452L189.331 75.3628ZM187.759 75.021L187.831 74.5262L187.759 75.021ZM186.084 74.8672L186.064 75.3668L186.064 75.3668L186.084 74.8672ZM182.871 74.8843L182.891 75.384L182.9 75.3834L182.871 74.8843ZM181.128 75.0381L181.06 74.5427L181.059 74.5429L181.128 75.0381ZM179.47 75.3799L179.596 75.8637L179.604 75.8618L179.47 75.3799ZM177.078 76.8154L176.674 76.5197L176.673 76.5222L177.078 76.8154ZM176.719 78.0117L176.594 78.4959L177.219 78.6571V78.0117H176.719ZM172.48 76.918H171.98V77.3053L172.356 77.4021L172.48 76.918ZM173.044 74.9355L173.459 75.2149L173.462 75.211L173.044 74.9355ZM174.531 73.4829L174.263 73.0611L174.259 73.0633L174.531 73.4829ZM176.685 72.5088L176.833 72.9864L176.839 72.9845L176.685 72.5088ZM179.197 71.9106L179.275 72.4046L179.28 72.4037L179.197 71.9106ZM192.259 83.652C191.943 83.3735 191.56 83.1094 191.116 82.8576L190.622 83.7273C191.022 83.9541 191.345 84.1799 191.598 84.4027L192.259 83.652ZM191.116 82.8576C190.653 82.5947 190.097 82.3706 189.456 82.1808L189.172 83.1396C189.762 83.3143 190.243 83.5118 190.622 83.7273L191.116 82.8576ZM189.464 82.1832C188.814 81.9786 188.05 81.8197 187.175 81.7031L187.043 82.6943C187.878 82.8057 188.583 82.9544 189.164 83.1371L189.464 82.1832ZM187.183 81.7042C186.309 81.5742 185.292 81.5107 184.136 81.5107V82.5107C185.258 82.5107 186.224 82.5726 187.036 82.6933L187.183 81.7042ZM184.136 81.5107C183.114 81.5107 182.143 81.5337 181.223 81.5797L181.273 82.5785C182.175 82.5334 183.129 82.5107 184.136 82.5107V81.5107ZM181.229 81.5795C180.299 81.6148 179.466 81.7329 178.736 81.9398L179.008 82.902C179.645 82.7215 180.396 82.6118 181.267 82.5787L181.229 81.5795ZM178.743 81.9378C177.993 82.1379 177.365 82.4724 176.89 82.961L177.607 83.6581C177.929 83.3265 178.384 83.0685 179.001 82.904L178.743 81.9378ZM176.89 82.961C176.377 83.4883 176.15 84.1966 176.15 85.0186H177.15C177.15 84.3822 177.322 83.9512 177.607 83.6581L176.89 82.961ZM176.15 85.0186V87.2061H177.15V85.0186H176.15ZM176.572 87.6998C177.589 87.8616 178.706 87.9939 179.924 88.0973L180.008 87.1009C178.81 86.9992 177.717 86.8695 176.729 86.7123L176.572 87.6998ZM179.924 88.0973C181.148 88.2013 182.507 88.2529 183.999 88.2529V87.2529C182.529 87.2529 181.199 87.202 180.008 87.1009L179.924 88.0973ZM183.999 88.2529C185.195 88.2529 186.464 88.2127 187.806 88.1324L187.746 87.1342C186.422 87.2134 185.173 87.2529 183.999 87.2529V88.2529ZM187.81 88.1322C189.174 88.0396 190.578 87.8605 192.019 87.5953L191.838 86.6118C190.431 86.8706 189.066 87.0447 187.742 87.1344L187.81 88.1322ZM192.429 87.1035V84.0273H191.429V87.1035H192.429ZM184.238 72.0176C184.792 72.0176 185.469 72.0453 186.271 72.1018L186.341 71.1043C185.525 71.0468 184.823 71.0176 184.238 71.0176V72.0176ZM186.271 72.1018C187.062 72.1575 187.889 72.258 188.752 72.4037L188.919 71.4176C188.027 71.2671 187.168 71.1625 186.341 71.1043L186.271 72.1018ZM188.758 72.4047C189.614 72.538 190.459 72.7269 191.292 72.9715L191.574 72.0119C190.698 71.7551 189.811 71.5567 188.912 71.4166L188.758 72.4047ZM191.3 72.9736C192.13 73.2029 192.864 73.5063 193.505 73.8806L194.009 73.0168C193.284 72.5936 192.468 72.259 191.566 72.0098L191.3 72.9736ZM193.514 73.8855C194.159 74.2448 194.662 74.6698 195.036 75.1554L195.828 74.5448C195.359 73.9367 194.746 73.4274 194.001 73.012L193.514 73.8855ZM195.036 75.1554C195.385 75.6082 195.564 76.1426 195.564 76.7812H196.564C196.564 75.9388 196.322 75.1857 195.828 74.5448L195.036 75.1554ZM195.564 76.7812V90.0088H196.564V76.7812H195.564ZM195.965 89.5187C195.025 89.7089 193.958 89.8721 192.761 90.0076L192.874 91.0012C194.092 90.8632 195.189 90.696 196.164 90.4989L195.965 89.5187ZM192.757 90.008C191.731 90.1321 190.503 90.2453 189.073 90.3475L189.145 91.3449C190.585 91.242 191.83 91.1274 192.877 91.0008L192.757 90.008ZM189.073 90.3475C187.652 90.449 186.063 90.5 184.307 90.5V91.5C186.082 91.5 187.695 91.4485 189.145 91.3449L189.073 90.3475ZM184.307 90.5C182.566 90.5 180.71 90.4265 178.738 90.2792L178.664 91.2764C180.657 91.4254 182.538 91.5 184.307 91.5V90.5ZM178.739 90.2792C176.785 90.1324 174.738 89.8781 172.598 89.5158L172.431 90.5018C174.598 90.8687 176.676 91.127 178.664 91.2764L178.739 90.2792ZM173.015 90.0088V83.8564H172.015V90.0088H173.015ZM173.015 83.8564C173.015 83.276 173.149 82.7956 173.4 82.3963L172.553 81.8645C172.188 82.4449 172.015 83.1153 172.015 83.8564H173.015ZM173.398 82.3988C173.675 81.9639 174.054 81.5865 174.546 81.2687L174.004 80.4286C173.402 80.8171 172.916 81.2942 172.554 81.8619L173.398 82.3988ZM174.546 81.2687C175.048 80.9446 175.648 80.6718 176.353 80.4549L176.059 79.4992C175.283 79.738 174.596 80.0463 174.004 80.4286L174.546 81.2687ZM176.353 80.4549C177.069 80.2347 177.844 80.0574 178.678 79.9239L178.52 78.9365C177.645 79.0764 176.824 79.2637 176.059 79.4992L176.353 80.4549ZM178.678 79.9239C179.513 79.7902 180.383 79.7009 181.289 79.6561L181.24 78.6573C180.3 78.7038 179.393 78.7967 178.52 78.9365L178.678 79.9239ZM181.295 79.6558C182.208 79.5995 183.121 79.5713 184.033 79.5713V78.5713C183.1 78.5713 182.167 78.6001 181.234 78.6577L181.295 79.6558ZM184.033 79.5713C185.415 79.5713 186.573 79.6614 187.514 79.8363L187.696 78.8532C186.677 78.6635 185.454 78.5713 184.033 78.5713V79.5713ZM187.52 79.8375C188.498 80.0061 189.295 80.1896 189.915 80.3855L190.216 79.4319C189.538 79.2177 188.694 79.0251 187.69 78.852L187.52 79.8375ZM189.908 80.383C190.635 80.6254 191.217 80.8893 191.663 81.1695L192.195 80.3226C191.661 79.9877 191.001 79.6933 190.224 79.4343L189.908 80.383ZM192.429 80.7461V77.9775H191.429V80.7461H192.429ZM192.429 77.9775C192.429 77.4261 192.293 76.9243 191.999 76.4974L191.175 77.0651C191.337 77.299 191.429 77.5947 191.429 77.9775H192.429ZM192.003 76.5039C191.729 76.0936 191.364 75.7583 190.918 75.4958L190.411 76.3577C190.739 76.551 190.989 76.7854 191.171 77.0586L192.003 76.5039ZM190.927 75.5014C190.493 75.2337 190.004 75.028 189.463 74.8804L189.199 75.8452C189.661 75.971 190.06 76.1413 190.401 76.3522L190.927 75.5014ZM189.473 74.8833C188.947 74.7281 188.4 74.6092 187.831 74.5262L187.687 75.5158C188.211 75.5923 188.712 75.7013 189.189 75.8423L189.473 74.8833ZM187.831 74.5262C187.266 74.4439 186.691 74.3911 186.104 74.3676L186.064 75.3668C186.617 75.3889 187.158 75.4386 187.687 75.5158L187.831 74.5262ZM186.104 74.3676C185.54 74.3446 185.009 74.333 184.512 74.333V75.333C184.994 75.333 185.511 75.3442 186.064 75.3668L186.104 74.3676ZM184.512 74.333C183.988 74.333 183.431 74.3505 182.842 74.3851L182.9 75.3834C183.473 75.3497 184.01 75.333 184.512 75.333V74.333ZM182.852 74.3847C182.254 74.4081 181.657 74.4608 181.06 74.5427L181.196 75.5334C181.761 75.4559 182.326 75.406 182.891 75.3839L182.852 74.3847ZM181.059 74.5429C180.468 74.6256 179.894 74.7439 179.337 74.898L179.604 75.8618C180.117 75.7197 180.648 75.6101 181.197 75.5333L181.059 74.5429ZM179.344 74.8961C178.782 75.0427 178.271 75.2468 177.817 75.512L178.321 76.3757C178.687 76.1624 179.11 75.9905 179.596 75.8637L179.344 74.8961ZM177.817 75.512C177.355 75.7816 176.97 76.1164 176.674 76.5197L177.481 77.1111C177.686 76.8309 177.963 76.5846 178.321 76.3757L177.817 75.512ZM176.673 76.5222C176.363 76.9499 176.219 77.4552 176.219 78.0117H177.219C177.219 77.634 177.314 77.3418 177.483 77.1087L176.673 76.5222ZM176.844 77.5276L172.605 76.4338L172.356 77.4021L176.594 78.4959L176.844 77.5276ZM172.98 76.918C172.98 76.2403 173.146 75.6798 173.459 75.2148L172.63 74.6562C172.191 75.3078 171.98 76.0689 171.98 76.918H172.98ZM173.462 75.211C173.797 74.703 174.241 74.2666 174.803 73.9025L174.259 73.0633C173.591 73.4968 173.044 74.0287 172.627 74.6601L173.462 75.211ZM174.8 73.9047C175.384 73.5329 176.06 73.2257 176.833 72.9864L176.537 72.0312C175.691 72.2932 174.932 72.6354 174.263 73.0611L174.8 73.9047ZM176.839 72.9845C177.622 72.7307 178.434 72.5373 179.275 72.4045L179.119 71.4168C178.228 71.5574 177.365 71.7628 176.53 72.0331L176.839 72.9845ZM179.28 72.4037C180.141 72.2583 180.996 72.1578 181.844 72.1019L181.779 71.1041C180.896 71.1622 180.007 71.2668 179.114 71.4176L179.28 72.4037ZM181.844 72.1019C182.701 72.0456 183.499 72.0176 184.238 72.0176V71.0176C183.474 71.0176 182.654 71.0465 181.779 71.1041L181.844 72.1019ZM215.239 71.8594L215.137 72.3489L215.138 72.3491L215.239 71.8594ZM218.452 72.748L218.286 73.2197L218.952 73.4539V72.748H218.452ZM218.452 64.9893V64.4893H217.952V64.9893H218.452ZM222.93 64.9893H223.43V64.4893H222.93V64.9893ZM222.93 89.667L223.074 90.1457L223.43 90.0383V89.667H222.93ZM220.759 90.1797L220.666 89.6884L220.665 89.6886L220.759 90.1797ZM218.076 90.6069L218.135 91.1035L218.141 91.1027L218.076 90.6069ZM215.085 90.8975L215.119 91.3964L215.124 91.396L215.085 90.8975ZM207.395 90.6411L207.306 91.1331L207.31 91.1338L207.395 90.6411ZM207.395 71.8936L207.481 72.3862L207.484 72.3855L207.395 71.8936ZM214.709 87.7529L214.662 87.2552L214.661 87.2553L214.709 87.7529ZM216.094 87.5649L216.008 87.0724L216.005 87.0728L216.094 87.5649ZM217.375 87.2915L217.254 86.8064L217.251 86.8073L217.375 87.2915ZM218.452 86.9668L218.626 87.4357L218.952 87.3148V86.9668H218.452ZM218.452 76.2344H218.952V75.9193L218.668 75.7833L218.452 76.2344ZM216.025 75.3115L215.879 75.7898L215.887 75.792L216.025 75.3115ZM211.257 74.9868L211.275 75.4866L211.283 75.4862L211.257 74.9868ZM209.395 75.1748L209.472 75.6689L209.481 75.6672L209.395 75.1748ZM207.788 75.585L207.953 76.0572L207.962 76.0536L207.788 75.585ZM206.523 76.2856L206.202 75.9025L206.196 75.9078L206.523 76.2856ZM206.062 86.1294L205.672 86.4429L205.68 86.452L206.062 86.1294ZM212.095 72.0176C213.059 72.0176 214.073 72.1272 215.137 72.3489L215.341 71.3699C214.218 71.1358 213.135 71.0176 212.095 71.0176V72.0176ZM215.138 72.3491C216.222 72.5725 217.271 72.8628 218.286 73.2197L218.618 72.2764C217.559 71.9041 216.467 71.602 215.34 71.3697L215.138 72.3491ZM218.952 72.748V64.9893H217.952V72.748H218.952ZM218.452 65.4893H222.93V64.4893H218.452V65.4893ZM222.43 64.9893V89.667H223.43V64.9893H222.43ZM222.785 89.1883C222.203 89.3641 221.498 89.5311 220.666 89.6884L220.852 90.671C221.707 90.5093 222.449 90.3345 223.074 90.1457L222.785 89.1883ZM220.665 89.6886C219.844 89.846 218.96 89.9869 218.011 90.1112L218.141 91.1027C219.107 90.9763 220.011 90.8323 220.853 90.6707L220.665 89.6886ZM218.017 90.1104C217.067 90.2235 216.077 90.3197 215.047 90.3989L215.124 91.396C216.167 91.3157 217.171 91.2182 218.135 91.1034L218.017 90.1104ZM215.052 90.3986C214.037 90.4662 213.051 90.5 212.095 90.5V91.5C213.075 91.5 214.083 91.4654 215.119 91.3964L215.052 90.3986ZM212.095 90.5C210.362 90.5 208.825 90.3818 207.481 90.1485L207.31 91.1338C208.722 91.379 210.318 91.5 212.095 91.5V90.5ZM207.484 90.1492C206.143 89.9053 205.028 89.5375 204.128 89.0554L203.655 89.9368C204.67 90.4801 205.89 90.8756 207.306 91.133L207.484 90.1492ZM204.128 89.0554C203.234 88.5764 202.574 87.9818 202.126 87.279L201.283 87.8167C201.837 88.6862 202.635 89.3904 203.655 89.9368L204.128 89.0554ZM202.126 87.279C201.683 86.5854 201.452 85.7479 201.452 84.7451H200.452C200.452 85.9071 200.722 86.938 201.283 87.8167L202.126 87.279ZM201.452 84.7451V77.7725H200.452V84.7451H201.452ZM201.452 77.7725C201.452 76.7697 201.683 75.9321 202.126 75.2386L201.283 74.7009C200.722 75.5796 200.452 76.6105 200.452 77.7725H201.452ZM202.126 75.2386C202.574 74.5358 203.234 73.9412 204.128 73.4622L203.655 72.5807C202.635 73.1272 201.837 73.8314 201.283 74.7009L202.126 75.2386ZM204.128 73.4622C205.026 72.9808 206.14 72.6188 207.481 72.3862L207.31 71.4009C205.893 71.6468 204.671 72.0367 203.655 72.5807L204.128 73.4622ZM207.484 72.3855C208.827 72.1413 210.363 72.0176 212.095 72.0176V71.0176C210.317 71.0176 208.72 71.1445 207.306 71.4016L207.484 72.3855ZM213.325 88.3213C213.798 88.3213 214.275 88.2977 214.758 88.2506L214.661 87.2553C214.209 87.2993 213.764 87.3213 213.325 87.3213V88.3213ZM214.757 88.2507C215.248 88.2039 215.723 88.1394 216.182 88.0571L216.005 87.0728C215.575 87.15 215.128 87.2108 214.662 87.2552L214.757 88.2507ZM216.18 88.0575C216.647 87.9757 217.087 87.8819 217.5 87.7757L217.251 86.8073C216.866 86.9062 216.452 86.9947 216.008 87.0724L216.18 88.0575ZM217.497 87.7766C217.92 87.6708 218.297 87.5575 218.626 87.4357L218.278 86.4979C217.992 86.604 217.651 86.7071 217.254 86.8064L217.497 87.7766ZM218.952 86.9668V76.2344H217.952V86.9668H218.952ZM218.668 75.7833C217.857 75.3955 217.022 75.078 216.164 74.831L215.887 75.792C216.692 76.0236 217.475 76.3213 218.236 76.6854L218.668 75.7833ZM216.171 74.8333C215.298 74.5663 214.348 74.4355 213.325 74.4355V75.4355C214.262 75.4355 215.113 75.5554 215.879 75.7897L216.171 74.8333ZM213.325 74.4355C212.611 74.4355 211.913 74.4528 211.232 74.4875L211.283 75.4862C211.946 75.4524 212.627 75.4355 213.325 75.4355V74.4355ZM211.24 74.4871C210.559 74.5106 209.914 74.5754 209.308 74.6824L209.481 75.6672C210.037 75.5692 210.634 75.5086 211.275 75.4865L211.24 74.4871ZM209.317 74.6808C208.707 74.7765 208.139 74.921 207.614 75.1164L207.962 76.0536C208.417 75.8843 208.92 75.7554 209.472 75.6688L209.317 74.6808ZM207.623 75.1129C207.083 75.3012 206.607 75.5628 206.202 75.9025L206.845 76.6687C207.146 76.416 207.513 76.2105 207.953 76.0571L207.623 75.1129ZM206.196 75.9078C205.796 76.2541 205.486 76.679 205.264 77.1752L206.177 77.5836C206.342 77.2139 206.567 76.9096 206.851 76.6635L206.196 75.9078ZM205.264 77.1752C205.035 77.6874 204.93 78.2789 204.93 78.9346H205.93C205.93 78.3826 206.018 77.9373 206.177 77.5836L205.264 77.1752ZM204.93 78.9346V83.959H205.93V78.9346H204.93ZM204.93 83.959C204.93 84.9538 205.157 85.8019 205.672 86.4428L206.452 85.816C206.124 85.4088 205.93 84.8099 205.93 83.959H204.93ZM205.68 86.452C206.178 87.0417 206.832 87.4703 207.623 87.7465L207.953 86.8024C207.308 86.5772 206.812 86.2424 206.444 85.8068L205.68 86.452ZM207.623 87.7465C208.394 88.0157 209.279 88.1759 210.271 88.235L210.33 87.2367C209.408 87.1818 208.618 87.0344 207.953 86.8024L207.623 87.7465ZM210.271 88.235C211.238 88.2926 212.257 88.3213 213.325 88.3213V87.3213C212.275 87.3213 211.276 87.293 210.33 87.2367L210.271 88.235ZM244.907 71.9106L244.824 72.4037L244.831 72.4048L244.907 71.9106ZM247.539 72.5088L247.394 72.9874L247.4 72.9891L247.539 72.5088ZM249.863 73.4829L249.611 73.9148L249.614 73.9166L249.863 73.4829ZM251.538 74.9355L251.136 75.233L251.143 75.242L251.538 74.9355ZM252.188 82.6943V83.1943H252.688V82.6943H252.188ZM232.603 82.6943V82.1943H232.103V82.6943H232.603ZM232.603 87.0693H232.103V87.504L232.533 87.5645L232.603 87.0693ZM236.584 87.4795L236.553 87.9785L236.558 87.9788L236.584 87.4795ZM245.112 87.377L245.066 86.8791L245.065 86.8792L245.112 87.377ZM248.889 86.9155L248.811 86.4217L248.81 86.4219L248.889 86.9155ZM252.188 86.249H252.688V85.605L252.064 85.7646L252.188 86.249ZM252.188 90.043L252.265 90.5368L252.688 90.4702V90.043H252.188ZM245.916 90.7778L245.879 90.2792L245.879 90.2792L245.916 90.7778ZM235.422 90.8633L235.387 91.362L235.391 91.3623L235.422 90.8633ZM231.697 90.5215L231.757 90.0251L231.753 90.0247L231.697 90.5215ZM228.433 90.043H227.933V90.4576L228.34 90.5343L228.433 90.043ZM228.997 74.9355L229.411 75.2149L229.414 75.211L228.997 74.9355ZM230.5 73.4829L230.232 73.0611L230.5 73.4829ZM232.654 72.5088L232.802 72.9864L232.806 72.9851L232.654 72.5088ZM235.2 71.9106L235.277 72.4047L235.283 72.4037L235.2 71.9106ZM237.815 71.603L237.783 71.1041L237.782 71.1041L237.815 71.603ZM232.603 79.96H232.103V80.46H232.603V79.96ZM247.949 79.96V80.46H248.449V79.96H247.949ZM247.607 76.7812L247.191 77.0586L247.196 77.0651L247.607 76.7812ZM246.685 75.9268L246.425 76.3544L246.431 76.3577L246.685 75.9268ZM245.352 75.3799L245.21 75.8596L245.223 75.863L245.352 75.3799ZM243.779 75.0552L243.707 75.55L243.717 75.5513L243.779 75.0552ZM242.122 74.9014L242.101 75.4009L242.101 75.401L242.122 74.9014ZM238.909 74.9014L238.889 74.4017L238.889 74.4018L238.909 74.9014ZM237.148 75.0552L237.082 74.5596L237.148 75.0552ZM235.439 75.397L235.561 75.8821L235.57 75.8796L235.439 75.397ZM233.987 75.9609L234.225 76.4009L234.234 76.3958L233.987 75.9609ZM232.979 76.8154L233.377 77.1177L233.382 77.1111L232.979 76.8154ZM240.259 72.0176C240.825 72.0176 241.513 72.0454 242.326 72.1018L242.395 71.1042C241.568 71.0468 240.855 71.0176 240.259 71.0176V72.0176ZM242.326 72.1018C243.129 72.1576 243.962 72.2581 244.824 72.4037L244.99 71.4176C244.098 71.267 243.233 71.1624 242.395 71.1042L242.326 72.1018ZM244.831 72.4048C245.696 72.5379 246.551 72.7321 247.394 72.9874L247.684 72.0302C246.796 71.7614 245.895 71.5568 244.983 71.4165L244.831 72.4048ZM247.4 72.9891C248.232 73.2298 248.968 73.5394 249.611 73.9148L250.115 73.051C249.392 72.6289 248.578 72.289 247.678 72.0285L247.4 72.9891ZM249.614 73.9166C250.257 74.2855 250.761 74.7256 251.136 75.233L251.94 74.6381C251.472 74.0061 250.859 73.4779 250.112 73.0492L249.614 73.9166ZM251.143 75.242C251.502 75.7053 251.688 76.2561 251.688 76.918H252.688C252.688 76.0532 252.44 75.2823 251.933 74.6291L251.143 75.242ZM251.688 76.918V82.6943H252.688V76.918H251.688ZM252.188 82.1943H232.603V83.1943H252.188V82.1943ZM232.103 82.6943V87.0693H233.103V82.6943H232.103ZM232.533 87.5645C233.923 87.7598 235.263 87.8979 236.553 87.9785L236.616 86.9805C235.354 86.9016 234.039 86.7663 232.672 86.5742L232.533 87.5645ZM236.558 87.9788C237.842 88.0476 239.076 88.082 240.259 88.082V87.082C239.095 87.082 237.879 87.0481 236.611 86.9802L236.558 87.9788ZM240.259 88.082C242.06 88.082 243.694 88.0132 245.159 87.8747L245.065 86.8792C243.637 87.0141 242.035 87.082 240.259 87.082V88.082ZM245.159 87.8748C246.625 87.7374 247.895 87.5823 248.969 87.4091L248.81 86.4219C247.764 86.5905 246.517 86.7431 245.066 86.8791L245.159 87.8748ZM248.968 87.4093C250.199 87.2137 251.314 86.9886 252.311 86.7334L252.064 85.7646C251.102 86.0107 250.018 86.23 248.811 86.4217L248.968 87.4093ZM251.688 86.249V90.043H252.688V86.249H251.688ZM252.11 89.5491C249.957 89.8889 247.881 90.1322 245.879 90.2792L245.952 91.2765C247.984 91.1273 250.088 90.8806 252.265 90.5368L252.11 89.5491ZM245.879 90.2792C243.884 90.4265 242.011 90.5 240.259 90.5V91.5C242.039 91.5 243.937 91.4254 245.952 91.2765L245.879 90.2792ZM240.259 90.5C238.49 90.5 236.888 90.4546 235.454 90.3643L235.391 91.3623C236.85 91.4542 238.473 91.5 240.259 91.5V90.5ZM235.458 90.3645C234.016 90.2624 232.783 90.1491 231.757 90.0251L231.637 91.0179C232.684 91.1445 233.935 91.2591 235.387 91.362L235.458 90.3645ZM231.753 90.0247C230.555 89.889 229.479 89.7312 228.525 89.5516L228.34 90.5343C229.323 90.7193 230.423 90.8805 231.641 91.0183L231.753 90.0247ZM228.933 90.043V76.918H227.933V90.043H228.933ZM228.933 76.918C228.933 76.2403 229.098 75.6798 229.411 75.2148L228.582 74.6562C228.143 75.3078 227.933 76.0689 227.933 76.918H228.933ZM229.414 75.211C229.748 74.7051 230.196 74.2691 230.769 73.9047L230.232 73.0611C229.551 73.4943 228.997 74.0267 228.579 74.6601L229.414 75.211ZM230.769 73.9047C231.353 73.5329 232.03 73.2257 232.802 72.9864L232.506 72.0312C231.66 72.2932 230.901 72.6354 230.232 73.0611L230.769 73.9047ZM232.806 72.9851C233.601 72.7311 234.425 72.5376 235.277 72.4047L235.123 71.4166C234.221 71.5572 233.347 71.7624 232.502 72.0325L232.806 72.9851ZM235.283 72.4037C236.144 72.2583 236.999 72.1578 237.848 72.1019L237.782 71.1041C236.899 71.1622 236.011 71.2668 235.117 71.4176L235.283 72.4037ZM237.847 72.102C238.716 72.0456 239.519 72.0176 240.259 72.0176V71.0176C239.494 71.0176 238.669 71.0465 237.783 71.1041L237.847 72.102ZM232.603 80.46H247.949V79.46H232.603V80.46ZM248.449 79.96V77.9775H247.449V79.96H248.449ZM248.449 77.9775C248.449 77.4261 248.313 76.9243 248.019 76.4974L247.196 77.0651C247.357 77.299 247.449 77.5947 247.449 77.9775H248.449ZM248.023 76.5039C247.75 76.0936 247.384 75.7583 246.938 75.4958L246.431 76.3577C246.76 76.551 247.009 76.7854 247.191 77.0586L248.023 76.5039ZM246.944 75.4992C246.52 75.2422 246.03 75.0433 245.48 74.8968L245.223 75.863C245.699 75.9899 246.097 76.1556 246.425 76.3544L246.944 75.4992ZM245.493 74.9004C244.965 74.7442 244.414 74.6306 243.841 74.559L243.717 75.5513C244.239 75.6165 244.736 75.7194 245.21 75.8594L245.493 74.9004ZM243.851 74.5604C243.287 74.4781 242.717 74.4253 242.142 74.4018L242.101 75.401C242.642 75.423 243.178 75.4727 243.707 75.5499L243.851 74.5604ZM242.142 74.4018C241.589 74.3788 241.064 74.3672 240.566 74.3672V75.3672C241.049 75.3672 241.56 75.3784 242.101 75.4009L242.142 74.4018ZM240.566 74.3672C240.046 74.3672 239.487 74.3787 238.889 74.4017L238.928 75.401C239.515 75.3784 240.061 75.3672 240.566 75.3672V74.3672ZM238.889 74.4018C238.292 74.4252 237.689 74.4778 237.082 74.5596L237.215 75.5507C237.792 75.473 238.363 75.4231 238.928 75.401L238.889 74.4018ZM237.082 74.5596C236.469 74.6421 235.878 74.7603 235.309 74.9144L235.57 75.8796C236.095 75.7375 236.643 75.6277 237.215 75.5507L237.082 74.5596ZM235.318 74.9119C234.734 75.0579 234.207 75.2612 233.74 75.5261L234.234 76.3958C234.61 76.1822 235.051 76.0095 235.561 75.882L235.318 74.9119ZM233.749 75.5211C233.271 75.7795 232.875 76.1109 232.575 76.5197L233.382 77.1111C233.583 76.8364 233.86 76.5981 234.225 76.4008L233.749 75.5211ZM232.58 76.5132C232.255 76.9414 232.103 77.4499 232.103 78.0117H233.103C233.103 77.6392 233.2 77.3502 233.377 77.1176L232.58 76.5132ZM232.103 78.0117V79.96H233.103V78.0117H232.103ZM272.593 71.5176H273.093V71.006L272.581 71.0177L272.593 71.5176ZM272.473 75.2261L272.972 75.2573L272.972 75.257L272.473 75.2261ZM272.012 79.1738V79.6738H272.435L272.505 79.2567L272.012 79.1738ZM267.876 79.1738L267.393 79.0459L267.226 79.6738H267.876V79.1738ZM268.167 77.9092L268.657 78.0073L268.659 77.9961L268.167 77.9092ZM268.354 76.5591L267.859 76.4944L267.858 76.5039L268.354 76.5591ZM268.457 74.9014H268.957V74.3899L268.446 74.4015L268.457 74.9014ZM265.962 75.1919L266.081 75.6775L266.087 75.676L265.962 75.1919ZM264.338 75.7729L264.562 76.2203L264.571 76.2154L264.338 75.7729ZM262.544 76.9863L262.277 76.5636L262.044 76.7107V76.9863H262.544ZM262.544 91V91.5H263.044V91H262.544ZM258.169 91H257.669V91.5H258.169V91ZM258.169 76.8838H258.669V76.8527L258.665 76.8218L258.169 76.8838ZM257.844 75.9609L257.422 76.2294L257.427 76.2361L257.431 76.2426L257.844 75.9609ZM257.332 75.3457L256.988 75.7092L256.995 75.7157L257.002 75.722L257.332 75.3457ZM256.631 74.8672L256.191 74.6293L255.941 75.0915L256.415 75.3183L256.631 74.8672ZM258.442 71.5176L258.608 71.0458L258.206 70.9044L258.003 71.2797L258.442 71.5176ZM259.69 72.1157L259.951 71.6894L259.951 71.6891L259.69 72.1157ZM260.801 72.9531L260.47 73.328L260.476 73.3332L260.482 73.3381L260.801 72.9531ZM261.86 74.1836L261.437 74.4495L261.714 74.8905L262.143 74.5958L261.86 74.1836ZM263.467 73.1753L263.711 73.612L263.718 73.6075L263.467 73.1753ZM264.885 72.4575L264.694 71.9956L264.69 71.9974L264.885 72.4575ZM266.321 72.0132L266.423 72.5027L266.432 72.5007L266.321 72.0132ZM267.961 71.7397L267.905 71.2429L267.904 71.243L267.961 71.7397ZM269.978 71.603L269.993 72.1028L270.001 72.1025L269.978 71.603ZM272.093 71.5176C272.093 72.6913 272.053 73.9171 271.974 75.1952L272.972 75.257C273.053 73.9602 273.093 72.7136 273.093 71.5176H272.093ZM271.974 75.1949C271.896 76.4524 271.744 77.751 271.519 79.091L272.505 79.2567C272.735 77.8851 272.891 76.5519 272.972 75.2573L271.974 75.1949ZM272.012 78.6738H267.876V79.6738H272.012V78.6738ZM268.359 79.3018C268.465 78.9031 268.564 78.4715 268.657 78.0072L267.676 77.8111C267.587 78.2584 267.492 78.6698 267.393 79.0459L268.359 79.3018ZM268.659 77.9961C268.73 77.5956 268.794 77.1345 268.851 76.6143L267.858 76.5039C267.801 77.009 267.74 77.4481 267.674 77.8223L268.659 77.9961ZM268.85 76.6238C268.922 76.0762 268.957 75.5019 268.957 74.9014H267.957C267.957 75.4629 267.924 75.9938 267.859 76.4944L268.85 76.6238ZM268.446 74.4015C267.421 74.4248 266.548 74.524 265.837 74.7078L266.087 75.676C266.698 75.518 267.488 75.4235 268.468 75.4012L268.446 74.4015ZM265.843 74.7063C265.167 74.8723 264.585 75.0782 264.105 75.3305L264.571 76.2154C264.958 76.012 265.458 75.8305 266.081 75.6775L265.843 74.7063ZM264.115 75.3257C263.659 75.5537 263.27 75.7958 262.959 76.0553L263.599 76.8236C263.834 76.6274 264.152 76.4251 264.562 76.2202L264.115 75.3257ZM262.959 76.0553C262.696 76.2741 262.469 76.4421 262.277 76.5636L262.811 77.4091C263.052 77.2571 263.315 77.0605 263.599 76.8236L262.959 76.0553ZM262.044 76.9863V91H263.044V76.9863H262.044ZM262.544 90.5H258.169V91.5H262.544V90.5ZM258.669 91V76.8838H257.669V91H258.669ZM258.665 76.8218C258.612 76.3949 258.481 76.008 258.257 75.6793L257.431 76.2426C257.549 76.4152 257.635 76.6435 257.673 76.9458L258.665 76.8218ZM258.266 75.6925C258.087 75.4104 257.886 75.1664 257.661 74.9694L257.002 75.722C257.142 75.844 257.283 76.0102 257.422 76.2294L258.266 75.6925ZM257.675 74.9822C257.431 74.7518 257.154 74.5632 256.847 74.4161L256.415 75.3183C256.632 75.4219 256.822 75.5522 256.988 75.7092L257.675 74.9822ZM257.071 75.105L258.882 71.7554L258.003 71.2797L256.191 74.6293L257.071 75.105ZM258.277 71.9893C258.663 72.1249 259.047 72.3087 259.429 72.5424L259.951 71.6891C259.513 71.4215 259.065 71.2065 258.608 71.0458L258.277 71.9893ZM259.429 72.542C259.752 72.7403 260.099 73.0009 260.47 73.328L261.132 72.5782C260.728 72.2218 260.334 71.9241 259.951 71.6894L259.429 72.542ZM260.482 73.3381C260.835 73.6309 261.154 73.9994 261.437 74.4495L262.284 73.9177C261.951 73.388 261.564 72.9361 261.12 72.5681L260.482 73.3381ZM262.143 74.5958C262.715 74.2037 263.237 73.8762 263.71 73.6119L263.223 72.7387C262.717 73.0212 262.168 73.366 261.577 73.7713L262.143 74.5958ZM263.718 73.6075C264.193 73.3317 264.647 73.1022 265.081 72.9177L264.69 71.9974C264.212 72.2002 263.721 72.4492 263.215 72.743L263.718 73.6075ZM265.077 72.9194C265.515 72.7375 265.964 72.5987 266.423 72.5026L266.218 71.5238C265.698 71.6328 265.189 71.7902 264.694 71.9956L265.077 72.9194ZM266.432 72.5007C266.913 72.3914 267.441 72.3031 268.019 72.2365L267.904 71.243C267.296 71.3132 266.731 71.4071 266.21 71.5256L266.432 72.5007ZM268.018 72.2366C268.605 72.17 269.264 72.1252 269.993 72.1028L269.963 71.1033C269.211 71.1264 268.525 71.1727 267.905 71.2429L268.018 72.2366ZM270.001 72.1025C270.748 72.0685 271.616 72.0402 272.604 72.0174L272.581 71.0177C271.587 71.0406 270.712 71.0692 269.955 71.1035L270.001 72.1025Z" fill="#19F2BE"/>
<path d="M2.59705 91.4333L13.7624 80.2679L22.1365 91.4333L33.3019 38.397L47.2586 71.8932L61.5 38.397L68.5 91.4333L107.387 16.4277M107.387 16.4277L107.516 16.1775M107.387 16.4277L101.462 17.5376L111.332 9.00003L110.001 21.7021L107.564 16.3945M107.387 16.4277L107.564 16.3945M107.564 16.3945L110.138 11.4468M107.564 16.3945L110.226 11.4935" stroke="#19F2BE" stroke-width="7"/>
</svg>
